<?xml version="1.0" standalone="no"?>
<!DOCTYPE svg PUBLIC "-//W3C//DTD SVG 20010904//EN"
 "http://www.w3.org/TR/2001/REC-SVG-20010904/DTD/svg10.dtd">
<svg version="1.0" xmlns="http://www.w3.org/2000/svg"
 width="700.000000pt" height="700.000000pt" viewBox="0 0 700.000000 700.000000"
 preserveAspectRatio="xMidYMid meet">
<metadata>
Created by potrace 1.14, written by Peter Selinger 2001-2017
</metadata>
<g transform="translate(0.000000,700.000000) scale(0.100000,-0.100000)"
fill="#000000" stroke="none">
<path d="M2995 6222 c-76 -7 -232 -34 -278 -48 -352 -106 -608 -283 -901 -624
-28 -32 -181 -241 -201 -275 -9 -15 -22 -9 -105 48 -121 82 -164 104 -247 123
-72 17 -172 15 -251 -5 -186 -48 -345 -227 -377 -426 -5 -25 -14 -88 -21 -140
-3 -22 -8 -51 -10 -65 -17 -112 -23 -404 -11 -545 28 -321 157 -566 350 -665
22 -11 27 -19 23 -39 -3 -14 -8 -48 -12 -76 -3 -27 -7 -61 -10 -75 -19 -118
-21 -437 -4 -590 14 -118 52 -292 86 -391 14 -40 28 -83 31 -94 19 -61 159
-315 203 -368 6 -7 27 -32 47 -57 93 -113 281 -271 355 -299 14 -5 58 -32 99
-59 188 -127 461 -242 654 -277 82 -14 164 -25 202 -25 37 0 45 -5 70 -37 53
-71 183 -186 263 -233 93 -54 283 -127 376 -145 166 -31 275 -32 414 -4 147
30 243 70 372 156 70 46 192 158 222 205 17 26 24 29 131 44 127 18 315 63
435 105 113 39 273 120 335 169 28 21 76 56 108 77 240 156 392 319 524 564
65 120 146 355 168 489 3 19 8 42 10 50 2 8 6 40 10 70 3 30 8 77 11 104 16
127 6 408 -21 601 -7 55 -13 100 -12 101 216 104 349 350 375 689 11 151 5
427 -12 525 -2 14 -7 48 -10 75 -3 28 -10 75 -16 105 -6 30 -13 69 -15 85 -11
63 -76 176 -139 239 -102 104 -228 154 -377 151 -119 -2 -199 -31 -332 -122
-60 -41 -113 -71 -117 -66 -4 4 -34 49 -68 98 -91 135 -185 248 -302 366 -101
101 -267 239 -288 239 -6 0 -12 4 -14 8 -5 13 -121 80 -210 121 -103 48 -211
86 -303 105 -39 8 -84 18 -100 21 -49 10 -306 14 -365 5 -82 -12 -119 -19
-180 -35 -49 -13 -62 -13 -105 1 -28 8 -66 17 -85 20 -19 3 -37 7 -40 9 -18
11 -266 24 -335 17z"/>
</g>
</svg>
